# xmcd CD database file
#
# Track frame offsets:
#	150
#	14265
#	23942
#	34827
#	47585
#	56805
#	67310
#	76090
#	90215
#	102847
#	110590
#	121165
#	132947
#	148670
#	158562
#	173172
#
# Disc length: 2408 seconds
#
# Revision: 0
# Processed by: cddbd v1.5.1PL0 Copyright (c) Steve Scherf et al.
# Submitted via: CDex 1.51
#
DISCID=cd096610
DTITLE=Wes Montgomery - Navy Swing
DYEAR=1964
DGENRE=Jazz
TTITLE0=There Will Never Be Another You
TTITLE1=The More I See You
TTITLE2=It's A Grand Night For Swinging
TTITLE3=A Bientot
TTITLE4=Capricious
TTITLE5=Body And Soul
TTITLE6=Paraphrase
TTITLE7=Freedom
TTITLE8=Let's Mane The Most Of A Beautiful Thing
TTITLE9=More Than Likely
TTITLE10=Have A Good Time
TTITLE11=Until I Met You - Corner Pocket
TTITLE12=I Won't Cry Anymore
TTITLE13=S'Posin'
TTITLE14=All My Life
TTITLE15=Alone Together
EXTD=YEAR: 1964
EXTT0=
EXTT1=
EXTT2=
EXTT3=
EXTT4=
EXTT5=
EXTT6=
EXTT7=
EXTT8=
EXTT9=
EXTT10=
EXTT11=
EXTT12=
EXTT13=
EXTT14=
EXTT15=
PLAYORDER=
